<svg width="48" height="48" viewBox="0 0 48 48" fill="none" xmlns="http://www.w3.org/2000/svg">
<path d="M24 3C12.45 3 3 12.45 3 24C3 35.55 12.45 45 24 45C35.55 45 45 35.55 45 24C45 12.45 35.55 3 24 3ZM16.2975 29.25C15.2452 29.284 14.207 29.0009 13.3177 28.4374C12.4284 27.8739 11.7291 27.056 11.3105 26.09C10.8919 25.124 10.7735 24.0544 10.9705 23.0202C11.1675 21.986 11.671 21.0349 12.4154 20.2904C13.1599 19.546 14.111 19.0425 15.1452 18.8455C16.1794 18.6485 17.249 18.7669 18.215 19.1855C19.181 19.6041 19.9989 20.3034 20.5624 21.1927C21.1259 22.082 21.409 23.1202 21.375 24.1725C21.3319 25.5054 20.7831 26.772 19.8401 27.7151C18.897 28.6581 17.6304 29.2069 16.2975 29.25ZM32.0475 29.25C30.9952 29.284 29.957 29.0009 29.0677 28.4374C28.1784 27.8739 27.4791 27.056 27.0605 26.09C26.6419 25.124 26.5235 24.0544 26.7205 23.0202C26.9175 21.986 27.421 21.0349 28.1654 20.2904C28.9099 19.546 29.861 19.0425 30.8952 18.8455C31.9294 18.6485 32.999 18.7669 33.965 19.1855C34.931 19.6041 35.7489 20.3034 36.3124 21.1927C36.8759 22.082 37.159 23.1202 37.125 24.1725C37.0819 25.5054 36.5331 26.772 35.5901 27.7151C34.647 28.6581 33.3804 29.2069 32.0475 29.25Z" fill="#FFA384"/>
</svg>
