<svg width="40" height="40" viewBox="0 0 40 40" fill="none" xmlns="http://www.w3.org/2000/svg">
<path d="M22.0571 0C24.3071 0.006 25.4491 0.018 26.4351 0.046L26.8231 0.0599999C27.2711 0.0759999 27.7131 0.0959999 28.2471 0.12C30.3751 0.22 31.8271 0.556 33.1011 1.05C34.4211 1.558 35.5331 2.246 36.6451 3.356C37.6625 4.35546 38.4495 5.56494 38.9511 6.9C39.4451 8.174 39.7811 9.626 39.8811 11.756C39.9051 12.288 39.9251 12.73 39.9411 13.18L39.9531 13.568C39.9831 14.552 39.9951 15.694 39.9991 17.944L40.0011 19.436V22.056C40.006 23.5148 39.9907 24.9736 39.9551 26.432L39.9431 26.82C39.9271 27.27 39.9071 27.712 39.8831 28.244C39.7831 30.374 39.4431 31.824 38.9511 33.1C38.4495 34.4351 37.6625 35.6445 36.6451 36.644C35.6457 37.6614 34.4362 38.4484 33.1011 38.95C31.8271 39.444 30.3751 39.78 28.2471 39.88L26.8231 39.94L26.4351 39.952C25.4491 39.98 24.3071 39.994 22.0571 39.998L20.5651 40H17.9471C16.4877 40.0051 15.0282 39.9898 13.5691 39.954L13.1811 39.942C12.7064 39.924 12.2317 39.9034 11.7571 39.88C9.62914 39.78 8.17714 39.444 6.90114 38.95C5.5668 38.4481 4.35802 37.6611 3.35914 36.644C2.34103 35.6447 1.55336 34.4352 1.05114 33.1C0.557138 31.826 0.221137 30.374 0.121137 28.244L0.0611375 26.82L0.0511378 26.432C0.0142699 24.9736 -0.00239859 23.5148 0.00113759 22.056V17.944C-0.0043982 16.4852 0.01027 15.0264 0.0451377 13.568L0.0591377 13.18C0.0751377 12.73 0.0951376 12.288 0.119138 11.756C0.219138 9.626 0.555138 8.176 1.04914 6.9C1.55253 5.5644 2.34158 4.35487 3.36114 3.356C4.35944 2.3391 5.56751 1.55215 6.90114 1.05C8.17714 0.556 9.62714 0.22 11.7571 0.12C12.2891 0.0959999 12.7331 0.0759999 13.1811 0.0599999L13.5691 0.0479999C15.0275 0.0124654 16.4863 -0.0028694 17.9451 0.00199986L22.0571 0ZM20.0011 10C17.349 10 14.8054 11.0536 12.9301 12.9289C11.0547 14.8043 10.0011 17.3478 10.0011 20C10.0011 22.6522 11.0547 25.1957 12.9301 27.0711C14.8054 28.9464 17.349 30 20.0011 30C22.6533 30 25.1968 28.9464 27.0722 27.0711C28.9476 25.1957 30.0011 22.6522 30.0011 20C30.0011 17.3478 28.9476 14.8043 27.0722 12.9289C25.1968 11.0536 22.6533 10 20.0011 10ZM20.0011 14C20.7891 13.9999 21.5693 14.1549 22.2973 14.4563C23.0253 14.7577 23.6868 15.1996 24.2441 15.7567C24.8013 16.3137 25.2434 16.9751 25.545 17.703C25.8467 18.4309 26.002 19.2111 26.0021 19.999C26.0023 20.7869 25.8472 21.5672 25.5458 22.2952C25.2444 23.0232 24.8025 23.6847 24.2455 24.2419C23.6884 24.7992 23.0271 25.2412 22.2992 25.5429C21.5713 25.8445 20.7911 25.9999 20.0031 26C18.4118 26 16.8857 25.3679 15.7605 24.2426C14.6353 23.1174 14.0031 21.5913 14.0031 20C14.0031 18.4087 14.6353 16.8826 15.7605 15.7574C16.8857 14.6321 18.4118 14 20.0031 14M30.5031 7C29.8401 7 29.2042 7.26339 28.7354 7.73223C28.2665 8.20107 28.0031 8.83696 28.0031 9.5C28.0031 10.163 28.2665 10.7989 28.7354 11.2678C29.2042 11.7366 29.8401 12 30.5031 12C31.1662 12 31.8021 11.7366 32.2709 11.2678C32.7397 10.7989 33.0031 10.163 33.0031 9.5C33.0031 8.83696 32.7397 8.20107 32.2709 7.73223C31.8021 7.26339 31.1662 7 30.5031 7Z" fill="#FFA384"/>
</svg>
